<svg width="100%" viewBox="0 0 680 220" role="img" style="" xmlns="http://www.w3.org/2000/svg">
<title style="fill:rgb(0, 0, 0);stroke:none;color:rgb(0, 0, 0);stroke-width:1px;stroke-linecap:butt;stroke-linejoin:miter;opacity:1;font-family:&quot;Anthropic Sans&quot;, -apple-system, &quot;system-ui&quot;, &quot;Segoe UI&quot;, sans-serif;font-size:16px;font-weight:400;text-anchor:start;dominant-baseline:auto">PixiqueAi logo</title>
<desc style="fill:rgb(0, 0, 0);stroke:none;color:rgb(0, 0, 0);stroke-width:1px;stroke-linecap:butt;stroke-linejoin:miter;opacity:1;font-family:&quot;Anthropic Sans&quot;, -apple-system, &quot;system-ui&quot;, &quot;Segoe UI&quot;, sans-serif;font-size:16px;font-weight:400;text-anchor:start;dominant-baseline:auto">Wordmark logo for PixiqueAi: a square indigo icon containing an abstract aperture made of four rounded petal shapes around a small white dot, followed by the wordmark "Pixique" in dark text and "Ai" in indigo.</desc>
<defs>
  <marker id="arrow" viewBox="0 0 10 10" refX="8" refY="5" markerWidth="6" markerHeight="6" orient="auto-start-reverse">
    <path d="M2 1L8 5L2 9" fill="none" stroke="context-stroke" stroke-width="1.5" stroke-linecap="round" stroke-linejoin="round"/>
  </marker>
</defs>

<rect x="40" y="60" width="100" height="100" rx="22" fill="#534AB7" style="fill:rgb(83, 74, 183);stroke:none;color:rgb(0, 0, 0);stroke-width:1px;stroke-linecap:butt;stroke-linejoin:miter;opacity:1;font-family:&quot;Anthropic Sans&quot;, -apple-system, &quot;system-ui&quot;, &quot;Segoe UI&quot;, sans-serif;font-size:16px;font-weight:400;text-anchor:start;dominant-baseline:auto"/>

<g transform="translate(90,110)" style="fill:rgb(0, 0, 0);stroke:none;color:rgb(0, 0, 0);stroke-width:1px;stroke-linecap:butt;stroke-linejoin:miter;opacity:1;font-family:&quot;Anthropic Sans&quot;, -apple-system, &quot;system-ui&quot;, &quot;Segoe UI&quot;, sans-serif;font-size:16px;font-weight:400;text-anchor:start;dominant-baseline:auto">
  <path d="M0,-32 C14,-32 24,-22 24,-8 C24,-2 20,2 14,2 C14,-10 6,-18 0,-18 C-6,-18 -14,-10 -14,2 C-20,2 -24,-2 -24,-8 C-24,-22 -14,-32 0,-32 Z" fill="#CECBF6" style="fill:rgb(206, 203, 246);stroke:none;color:rgb(0, 0, 0);stroke-width:1px;stroke-linecap:butt;stroke-linejoin:miter;opacity:1;font-family:&quot;Anthropic Sans&quot;, -apple-system, &quot;system-ui&quot;, &quot;Segoe UI&quot;, sans-serif;font-size:16px;font-weight:400;text-anchor:start;dominant-baseline:auto"/>
  <path d="M32,0 C32,14 22,24 8,24 C2,24 -2,20 -2,14 C10,14 18,6 18,0 C18,-6 10,-14 -2,-14 C-2,-20 2,-24 8,-24 C22,-24 32,-14 32,0 Z" fill="#AFA9EC" style="fill:rgb(175, 169, 236);stroke:none;color:rgb(0, 0, 0);stroke-width:1px;stroke-linecap:butt;stroke-linejoin:miter;opacity:1;font-family:&quot;Anthropic Sans&quot;, -apple-system, &quot;system-ui&quot;, &quot;Segoe UI&quot;, sans-serif;font-size:16px;font-weight:400;text-anchor:start;dominant-baseline:auto"/>
  <path d="M0,32 C-14,32 -24,22 -24,8 C-24,2 -20,-2 -14,-2 C-14,10 -6,18 0,18 C6,18 14,10 14,-2 C20,-2 24,2 24,8 C24,22 14,32 0,32 Z" fill="#7F77DD" style="fill:rgb(127, 119, 221);stroke:none;color:rgb(0, 0, 0);stroke-width:1px;stroke-linecap:butt;stroke-linejoin:miter;opacity:1;font-family:&quot;Anthropic Sans&quot;, -apple-system, &quot;system-ui&quot;, &quot;Segoe UI&quot;, sans-serif;font-size:16px;font-weight:400;text-anchor:start;dominant-baseline:auto"/>
  <path d="M-32,0 C-32,-14 -22,-24 -8,-24 C-2,-24 2,-20 2,-14 C-10,-14 -18,-6 -18,0 C-18,6 -10,14 2,14 C2,20 -2,24 -8,24 C-22,24 -32,14 -32,0 Z" fill="#534AB7" stroke="#3C3489" stroke-width="0.5" style="fill:rgb(83, 74, 183);stroke:rgb(60, 52, 137);color:rgb(0, 0, 0);stroke-width:0.5px;stroke-linecap:butt;stroke-linejoin:miter;opacity:1;font-family:&quot;Anthropic Sans&quot;, -apple-system, &quot;system-ui&quot;, &quot;Segoe UI&quot;, sans-serif;font-size:16px;font-weight:400;text-anchor:start;dominant-baseline:auto"/>
  <circle cx="0" cy="0" r="7" fill="#FFFFFF" style="fill:rgb(255, 255, 255);stroke:none;color:rgb(0, 0, 0);stroke-width:1px;stroke-linecap:butt;stroke-linejoin:miter;opacity:1;font-family:&quot;Anthropic Sans&quot;, -apple-system, &quot;system-ui&quot;, &quot;Segoe UI&quot;, sans-serif;font-size:16px;font-weight:400;text-anchor:start;dominant-baseline:auto"/>
</g>

<text x="165" y="125" font-family="Arial, sans-serif" font-size="56" font-weight="600" fill="#26215C" style="fill:rgb(38, 33, 92);stroke:none;color:rgb(0, 0, 0);stroke-width:1px;stroke-linecap:butt;stroke-linejoin:miter;opacity:1;font-family:Arial, sans-serif;font-size:56px;font-weight:600;text-anchor:start;dominant-baseline:auto">Pixique<tspan fill="#534AB7" style="fill:rgb(83, 74, 183);stroke:none;color:rgb(0, 0, 0);stroke-width:1px;stroke-linecap:butt;stroke-linejoin:miter;opacity:1;font-family:Arial, sans-serif;font-size:56px;font-weight:600;text-anchor:start;dominant-baseline:auto">Ai</tspan></text>
<text x="166" y="150" font-family="Arial, sans-serif" font-size="15" letter-spacing="2" fill="#7F77DD" style="fill:rgb(127, 119, 221);stroke:none;color:rgb(0, 0, 0);stroke-width:1px;stroke-linecap:butt;stroke-linejoin:miter;opacity:1;font-family:Arial, sans-serif;font-size:15px;font-weight:400;text-anchor:start;dominant-baseline:auto">AI IMAGE TOOLS</text>
</svg>